<?xml version="1.0" encoding="utf-8"?>
<!-- Generator: Adobe Illustrator 18.1.1, SVG Export Plug-In . SVG Version: 6.00 Build 0)  -->
<svg version="1.1" id="Calque_1" xmlns="http://www.w3.org/2000/svg" xmlns:xlink="http://www.w3.org/1999/xlink" x="0px" y="0px"
	 viewBox="2.8 2.8 32.3 32.3" enable-background="new 2.8 2.8 32.3 32.3" xml:space="preserve">
<g id="Calque_2" display="none">
	<rect x="5" y="5.7" display="inline" fill="#212830" width="31" height="27.6"/>
</g>
<g id="Calque_1_1_">
	<g>
		<g>
			<path fill="#FFFFFF" d="M29.8,21.3l-0.6-1.1h0.2v-0.8c0,0,0.8,0.5,0-0.4c-0.8-0.9-1.9-4.6-1.9-4.6c2.3-3.7-1.9-7.8-1.9-7.8
				L21.8,12c-0.4-0.4-1.6-0.5-2.9-0.5S16.4,11.6,16,12l-3.9-5.4c0,0-4.1,4-1.9,7.8c0,0-1.2,3.6-1.9,4.6c-0.8,0.9,0,0.4,0,0.4v0.8
				h0.2L8,21.3h0.8L8.7,22h0.4l0.2,1.1h0.4l0.6,0.9l0.6-0.4c0,0,2.5,3.2,8,3.2s8-3.2,8-3.2l0.6,0.4l0.6-0.9h0.4l0.2-1.1h0.4L29,21.3
				C29,21.3,29.8,21.3,29.8,21.3z"/>
			<path fill="#212830" d="M12,16.7c0,0,2.2-0.8,4,1.1c1.8,1.9,0.7,3.7,0.7,3.7s0.3,0.6-0.1,0.5c-0.4-0.1-0.3-0.2-0.3-0.2
				s-6-0.8-4.6-4.5C11.6,17.3,11.1,16.9,12,16.7z"/>
			<path fill="#212830" d="M25.8,16.7c0,0-2.2-0.8-4,1.1c-1.8,1.9-0.7,3.7-0.7,3.7s-0.3,0.6,0.1,0.5c0.4-0.1,0.3-0.2,0.3-0.2
				s6-0.8,4.6-4.5C26.2,17.3,26.7,16.9,25.8,16.7z"/>
			<path fill="#FFFFFF" d="M20.4,24.4c0,0-1,0.5-1.5,1.4c-0.5-1-1.5-1.4-1.5-1.4h1.5H20.4z"/>
		</g>
		<path fill="#FFFFFF" d="M14.7,16.9c0,0,0,0.1,0.1,0.3c0.1,0.2,0.1,0.4,0.2,0.6c0,0.2,0.1,0.5,0.1,0.7c0,0.2,0,0.5,0,0.7
			c0,0.1,0,0.2,0,0.3c0,0.1-0.1,0.2-0.1,0.3c0,0.1-0.1,0.2-0.1,0.3c0,0.1-0.1,0.2-0.1,0.3c-0.1,0.2-0.1,0.4-0.2,0.5
			c-0.1,0.2-0.1,0.3-0.1,0.3s-0.1,0-0.2-0.1c-0.1-0.1-0.3-0.2-0.5-0.4c-0.1-0.1-0.2-0.2-0.2-0.4c-0.1-0.1-0.1-0.3-0.2-0.4
			c-0.1-0.2-0.1-0.3-0.1-0.5c0-0.2,0-0.3,0-0.5c0.1-0.3,0.1-0.7,0.3-0.9c0.1-0.3,0.3-0.5,0.5-0.7c0.2-0.2,0.4-0.3,0.5-0.4
			C14.6,16.9,14.7,16.9,14.7,16.9z"/>
		<path fill="#000100" d="M23.1,16.9c0,0,0.1,0,0.3,0.1c0.2,0.1,0.4,0.2,0.5,0.4c0.2,0.2,0.4,0.4,0.5,0.7c0.1,0.3,0.2,0.6,0.3,0.9
			c0,0.2,0,0.3,0,0.5c0,0.2,0,0.3-0.1,0.5c-0.1,0.2-0.1,0.3-0.2,0.4c-0.1,0.1-0.1,0.3-0.2,0.4c-0.2,0.2-0.4,0.4-0.5,0.4
			c-0.1,0.1-0.2,0.1-0.2,0.1s-0.1-0.1-0.1-0.3c-0.1-0.2-0.1-0.4-0.2-0.5c0-0.1-0.1-0.2-0.1-0.3c0-0.1-0.1-0.2-0.1-0.3
			c0-0.1-0.1-0.2-0.1-0.3c0-0.1,0-0.2,0-0.3c0-0.2,0-0.5,0-0.7c0-0.2,0.1-0.5,0.1-0.7c0.1-0.2,0.1-0.4,0.2-0.6
			C23.1,17,23.1,16.9,23.1,16.9z"/>
	</g>
	<g>
		<path fill="#212830" d="M25.9,16.1v5.3h4.7v4.1h-4.7v5.1h-4.2v-5.1H17v-4.1h4.7v-5.3C21.6,16.1,25.9,16.1,25.9,16.1z"/>
	</g>
	<g>
		<path fill="#FFFFFF" d="M24.9,17.3v5h4.8v2.2h-4.8v5.1h-2.3v-5.1h-4.8v-2.2h4.8v-5H24.9z"/>
	</g>
</g>
</svg>
