<?xml version="1.0" encoding="utf-8"?>
<!-- Generator: Adobe Illustrator 18.1.1, SVG Export Plug-In . SVG Version: 6.00 Build 0)  -->
<svg version="1.1" id="Calque_1" xmlns="http://www.w3.org/2000/svg" xmlns:xlink="http://www.w3.org/1999/xlink" x="0px" y="0px"
	 viewBox="0 0 38 38" enable-background="new 0 0 38 38" xml:space="preserve">
<g>
	<path fill="#212830" d="M38.2,27.3l-1-1.9h0.4v-1.4c0,0,1.3,0.9,0-0.7c-1.3-1.6-3.4-8-3.4-8c4-6.5-3.3-13.6-3.3-13.6l-6.7,9.4
		c-0.7-0.6-2.9-0.9-5.1-0.9c-2.2,0-4.4,0.3-5.1,0.9L7.2,1.7c0,0-7.2,7-3.3,13.6c0,0-2,6.3-3.4,8c-1.3,1.6,0,0.7,0,0.7v1.4H1l-1,1.9
		h1.4l-0.2,1.3h0.7l0.4,1.8H3L4.2,32l1-0.6c0,0,4.3,5.6,13.9,5.6c9.6,0,13.9-5.6,13.9-5.6l1,0.6l1.1-1.5h0.7l0.4-1.8H37l-0.2-1.3
		H38.2z M14.9,28.6c-0.7-0.1-0.6-0.4-0.6-0.4s-10.4-1.3-8-7.9c0,0-0.9-0.6,0.7-0.9c0,0,3.8-1.4,6.9,1.9c3.1,3.3,1.3,6.4,1.3,6.4
		S15.6,28.7,14.9,28.6z M19.1,35.2c-0.9-1.7-2.6-2.5-2.6-2.5h2.6h2.6C21.7,32.7,20,33.5,19.1,35.2z M23.8,28.2c0,0,0.1,0.2-0.6,0.4
		c-0.7,0.1-0.2-0.9-0.2-0.9s-1.8-3.2,1.3-6.4c3.1-3.3,6.9-1.9,6.9-1.9c1.5,0.3,0.7,0.9,0.7,0.9C34.2,26.8,23.8,28.2,23.8,28.2z"/>
	<path fill="#212830" d="M11.7,19.7c0,0,0.1,0.2,0.2,0.5c0.1,0.3,0.2,0.6,0.3,1c0.1,0.4,0.2,0.8,0.2,1.3c0,0.4,0,0.9,0,1.3
		c0,0.2,0,0.4-0.1,0.6c0,0.2-0.1,0.4-0.2,0.6c0,0.2-0.1,0.4-0.2,0.6c-0.1,0.2-0.2,0.4-0.2,0.5c-0.1,0.3-0.2,0.7-0.4,1
		c-0.1,0.3-0.2,0.5-0.2,0.5s-0.2,0-0.4-0.2c-0.3-0.1-0.6-0.4-1-0.8c-0.2-0.2-0.3-0.4-0.4-0.6C9.2,25.6,9.1,25.3,9,25
		c-0.1-0.3-0.1-0.6-0.1-0.9c0-0.3,0-0.6,0-0.9c0.1-0.6,0.2-1.1,0.5-1.6c0.3-0.5,0.6-0.9,0.9-1.2c0.3-0.3,0.7-0.5,1-0.7
		C11.5,19.7,11.7,19.7,11.7,19.7z"/>
	<path fill="#212830" d="M26.5,19.7c0,0,0.2,0,0.5,0.2c0.3,0.1,0.6,0.3,1,0.7c0.4,0.3,0.7,0.7,0.9,1.2c0.3,0.5,0.4,1,0.5,1.6
		c0,0.3,0,0.6,0,0.9c0,0.3,0,0.6-0.1,0.9c-0.1,0.3-0.2,0.5-0.3,0.8c-0.1,0.2-0.2,0.5-0.4,0.6c-0.4,0.4-0.7,0.6-1,0.8
		c-0.3,0.1-0.4,0.2-0.4,0.2s-0.1-0.2-0.2-0.5c-0.1-0.3-0.3-0.6-0.4-1c0-0.2-0.2-0.4-0.2-0.5c-0.1-0.2-0.1-0.4-0.2-0.6
		c0-0.2-0.1-0.4-0.2-0.6c0-0.2-0.1-0.4-0.1-0.6c-0.1-0.4-0.1-0.8,0-1.3c0-0.4,0.1-0.9,0.2-1.3c0.1-0.4,0.2-0.8,0.3-1
		C26.4,19.9,26.5,19.7,26.5,19.7z"/>
</g>
</svg>
