<?xml version="1.0" encoding="utf-8"?>
<!-- Generator: Adobe Illustrator 18.1.1, SVG Export Plug-In . SVG Version: 6.00 Build 0)  -->
<svg version="1.1" id="Calque_1" xmlns="http://www.w3.org/2000/svg" xmlns:xlink="http://www.w3.org/1999/xlink" x="0px" y="0px"
	 viewBox="42 -31 128 100" enable-background="new 42 -31 128 100" xml:space="preserve">
<g id="Captions">
</g>
<g id="Your_Icon">
	<g>
		<polygon fill="#FFFFFF" points="65.8,8.8 44.9,8.8 44.9,28.1 65.8,28.1 65.8,42.9 88.9,18.4 65.8,-5.8 		"/>
		<polygon fill="#FFFFFF" points="84.3,-5.7 88.6,-5.7 88.6,-10.8 84.3,-10.8 84.3,-10.8 79.2,-10.8 79.2,4.7 84.3,10 		"/>
		<polygon fill="#FFFFFF" points="84.3,26.8 79.2,32.2 79.2,48.4 88.6,48.4 88.6,43.3 84.3,43.3 		"/>
		<path fill="#FFFFFF" d="M91-15.2v68.4l26.2-7.4V-7.8L91-15.2z M99.5,22.2h-1c-1.1,0-2.1-1.1-2.4-2.7h-1.1v-2h1.1
			c0.3-1.6,1.3-2.7,2.4-2.7h1c1.4,0,2.5,1.7,2.5,3.7C102.1,20.5,100.9,22.2,99.5,22.2z"/>
	</g>
</g>
</svg>
