<?xml version="1.0" encoding="utf-8"?>
<!-- Generator: Adobe Illustrator 16.0.0, SVG Export Plug-In . SVG Version: 6.00 Build 0)  -->
<!DOCTYPE svg PUBLIC "-//W3C//DTD SVG 1.1//EN" "http://www.w3.org/Graphics/SVG/1.1/DTD/svg11.dtd">
<svg version="1.1" id="Calque_1" xmlns="http://www.w3.org/2000/svg" xmlns:xlink="http://www.w3.org/1999/xlink" x="0px" y="0px"
	 width="867.559px" height="632.968px" viewBox="0 -260.939 867.559 632.968" enable-background="new 0 -260.939 867.559 632.968"
	 xml:space="preserve">
<g>
	<rect x="36.558" y="304.043" fill="#F0EFED" width="798.558" height="12.403"/>
	<rect x="36.558" y="132.22" fill="#F0EFED" width="798.558" height="12.404"/>
	<g>
		<path fill="#F0EFED" d="M51.8,196.038v92.519H36.624V164.379h16.971l41.122,87.79v-87.79h15.501v124.178H94.717L51.8,196.038z"/>
		<path fill="#F0EFED" d="M175.384,226.389v62.168h-16.645v-62.168l-20.887-62.01h16.808l12.564,37.206l12.566-37.206h16.805
			l-21.047,62.01H175.384z"/>
		<path fill="#F0EFED" d="M277.102,288.557h-15.828l-8.322-37.691h-22.52l-8.321,37.691h-15.829l27.578-124.178h15.665
			L277.102,288.557z M233.861,234.873h15.5l-7.669-35.083L233.861,234.873z"/>
		<path fill="#F0EFED" d="M320.24,196.038v92.519h-15.176V164.379h16.97l41.122,87.79v-87.79h15.502v124.178h-15.502L320.24,196.038
			z"/>
		<path fill="#F0EFED" d="M491.202,199.462c0.106-2.061-0.11-4.266-0.653-6.605c-0.545-2.338-1.386-4.463-2.528-6.366
			c-1.142-1.9-2.668-3.508-4.569-4.813c-1.906-1.307-4.215-1.96-6.938-1.96c-1.959,0-3.666,0.52-5.138,1.556
			c-1.47,1.033-2.668,2.336-3.591,3.914c-0.926,1.576-1.63,3.237-2.119,4.975c-0.489,1.74-0.737,3.265-0.737,4.568
			c0,3.591,1.388,7.211,4.164,10.854c2.774,3.647,6.495,6.716,11.174,9.219c5.983,3.264,10.936,6.636,14.85,10.116
			c3.916,3.484,7.018,7.076,9.302,10.769c2.282,3.7,3.837,7.615,4.653,11.753c0.817,4.136,1.112,8.484,0.895,13.052
			c-0.436,9.138-3.154,16.214-8.159,21.214c-5.004,5.006-11.694,7.505-20.07,7.505c-4.895,0-9.355-0.948-13.382-2.853
			c-4.025-1.903-7.451-4.622-10.28-8.158c-2.83-3.537-4.975-7.86-6.442-12.974c-1.468-5.116-2.099-10.877-1.88-17.301h16.646
			c-0.437,7.51,0.541,13.629,2.936,18.362c2.394,4.732,6.473,7.095,12.238,7.095c2.284,0,4.188-0.43,5.711-1.307
			c1.525-0.869,2.776-1.957,3.754-3.26c0.979-1.306,1.686-2.718,2.121-4.244c0.438-1.521,0.653-2.992,0.653-4.404
			c0.216-5.877-1.497-11.479-5.138-16.811c-3.65-5.323-9.061-10.056-16.239-14.195c-15.774-9.03-23.661-20.778-23.661-35.246
			c0-4.572,0.625-8.703,1.881-12.402c1.246-3.692,3.099-6.908,5.546-9.627c2.447-2.714,5.466-4.812,9.053-6.28
			c3.592-1.47,7.781-2.204,12.568-2.204c4.239,0,8.181,0.816,11.831,2.446c3.641,1.632,6.796,3.999,9.465,7.101
			c2.663,3.103,4.704,6.879,6.114,11.341c1.416,4.464,2.069,9.521,1.959,15.173H491.202z"/>
		<path fill="#F0EFED" d="M537.756,288.557V164.868c10.01-0.979,18.438-0.732,25.295,0.737c6.852,1.469,12.4,3.832,16.643,7.095
			c4.241,3.267,7.287,7.266,9.14,11.997c1.848,4.733,2.772,9.87,2.772,15.418c0,3.916-0.654,8.055-1.958,12.403
			c-1.307,4.351-3.483,8.483-6.53,12.399c-3.043,3.919-7.072,7.32-12.072,10.203c-5.005,2.883-11.205,4.755-18.604,5.628v47.808
			H537.756z M575.451,200.115c0-2.714-0.434-5.356-1.307-7.912c-0.87-2.558-2.229-4.787-4.079-6.69
			c-1.851-1.904-4.216-3.373-7.099-4.405s-6.39-1.391-10.525-1.062v42.589c4.136-0.103,7.643-0.816,10.525-2.122
			c2.883-1.305,5.248-2.963,7.099-4.975c1.85-2.012,3.209-4.351,4.079-7.015C575.018,205.854,575.451,203.052,575.451,200.115z"/>
		<path fill="#F0EFED" d="M688.584,229.325c-0.326,8.379-1.252,16.184-2.772,23.417c-1.524,7.232-3.73,13.521-6.609,18.844
			c-2.883,5.335-6.503,9.495-10.855,12.487c-4.35,2.991-9.517,4.483-15.498,4.483c-10.991-0.104-19.257-5.272-24.806-15.502
			c-5.547-10.222-8.156-25.233-7.831-45.036c0.106-7.285,0.817-14.686,2.12-22.192c1.305-7.506,3.37-14.274,6.203-20.313
			c2.827-6.036,6.525-11.019,11.098-14.934c4.567-3.914,10.115-5.979,16.643-6.2c4.785-0.104,8.918,0.924,12.4,3.101
			c3.484,2.182,6.418,5.089,8.812,8.731c2.39,3.646,4.324,7.833,5.791,12.567c1.47,4.731,2.612,9.517,3.426,14.358
			c0.818,4.84,1.362,9.542,1.634,14.115C688.611,221.818,688.691,225.844,688.584,229.325z M671.777,228.672
			c0.107-6.956-0.163-13.352-0.817-19.171c-0.651-5.82-1.659-10.826-3.018-15.013c-1.362-4.189-2.992-7.455-4.896-9.791
			c-1.904-2.338-4.051-3.452-6.444-3.349c-3.916,0.112-7.152,1.798-9.71,5.06c-2.555,3.264-4.594,7.288-6.12,12.072
			c-1.523,4.793-2.609,9.879-3.261,15.262c-0.653,5.384-1.035,10.196-1.143,14.441c-0.221,13.601,1.196,24.258,4.243,31.983
			c3.043,7.726,7.181,11.643,12.402,11.748c2.825,0,5.383-0.979,7.669-2.938c2.283-1.961,4.213-4.813,5.793-8.566
			c1.572-3.75,2.799-8.297,3.67-13.629C671.016,241.46,671.557,235.421,671.777,228.672z"/>
		<path fill="#F0EFED" d="M710.335,288.557v-15.988h16.316v-91.869h-16.316v-16.156h49.116v16.156h-16.318v91.869h16.318v15.988
			H710.335z"/>
		<path fill="#F0EFED" d="M803.069,164.543v107.696h31.821v16.157h-48.462V164.543H803.069z"/>
	</g>
	<path fill="#F0EFED" d="M661.998,124.41h9.151l-2.609-16.978h17.985l-12.767-24.787h5.22v-18.31c0,0,16.964,11.755,0-9.134
		c-16.98-20.895-43.077-101.848-43.077-101.848c50.624-83.552-41.79-173.645-41.79-173.645l-86.177,120.114
		c-9.132-7.825-36.562-11.743-65.282-11.743c-28.714,0-56.146,3.918-65.277,11.743l-86.193-120.114c0,0-92.397,90.093-41.77,173.645
		c0,0-26.103,80.954-43.08,101.848c-16.965,20.89,0,9.134,0,9.134v18.31h5.208l-12.755,24.787h17.992l-2.618,16.978h9.151
		l2.843,12.787h433.006L661.998,124.41z M389.538,123.677c-8.822-1.791-7.269-4.763-7.269-4.763s-19.035-2.467-41.063-10.064l0,0
		c0,0-0.594-0.16-1.607-0.56c-35.916-12.718-78.669-39.102-60.038-90.543c0,0-11.259-8.23,8.548-11.679
		c0,0,48.799-17.375,88.319,24.307c39.522,41.702,16.149,82.106,16.149,82.106S398.371,125.467,389.538,123.677z M545.705,108.29
		c-1.013,0.399-1.604,0.56-1.604,0.56l0,0c-22.027,7.598-41.059,10.064-41.059,10.064s1.552,2.972-7.274,4.763
		c-8.845,1.79-3.034-11.195-3.034-11.195S469.34,72.077,508.85,30.375c39.549-41.683,88.345-24.307,88.345-24.307
		c19.81,3.448,8.555,11.679,8.555,11.679C624.38,69.194,581.619,95.574,545.705,108.29z"/>
	<path fill="none" d="M376.429,30.375C336.909-11.307,288.11,6.068,288.11,6.068c-19.807,3.448-8.548,11.679-8.548,11.679
		c-18.631,51.441,24.122,77.825,60.038,90.543c-0.967-0.387-2.314-0.982-3.91-1.873c-3.309-1.812-7.688-4.943-12.224-9.619
		c-2.324-2.362-3.552-5.125-5.255-8.174c-1.521-3.051-2.966-6.393-4.138-9.983c-1.41-3.652-1.486-7.149-1.794-10.929
		c-0.343-3.725-0.192-7.551-0.087-11.339c1.363-7.191,3.126-14.493,6.467-20.53c3.305-6.067,7.188-11.324,11.671-15.189
		c4.294-3.894,8.792-6.732,12.256-8.337c3.342-1.66,5.787-2.199,5.787-2.199s0.987,2.314,2.244,5.812
		c1.262,3.519,2.69,8.038,3.999,13.247c1.004,5.05,2.156,10.612,2.348,16.097c0.193,5.484,0.565,10.933-0.468,16.232
		c-0.203,2.558-0.343,5.139-0.98,7.658c-0.277,2.478-1.687,5.177-1.931,7.451c-0.483,2.358-1.278,4.753-2.139,7.126
		c-0.774,2.33-2.274,4.909-2.85,7.023c-1.425,4.36-3.18,8.773-4.716,12.242c-1.447,3.419-2.672,5.842-2.672,5.842
		c22.028,7.598,41.063,10.064,41.063,10.064s-1.553,2.972,7.269,4.763c8.833,1.79,3.04-11.195,3.04-11.195
		S415.951,72.077,376.429,30.375z"/>
	<path fill="none" d="M597.195,6.068c0,0-48.796-17.375-88.345,24.307c-39.51,41.702-16.116,82.106-16.116,82.106
		s-5.811,12.985,3.034,11.195c8.826-1.791,7.274-4.763,7.274-4.763s19.031-2.467,41.059-10.064c0,0-1.22-2.417-2.667-5.842
		c-1.539-3.469-3.293-7.882-4.741-12.242c-0.55-2.115-2.055-4.693-2.827-7.023c-0.863-2.373-1.662-4.768-2.136-7.126
		c-0.244-2.274-1.66-4.974-1.938-7.451c-0.638-2.519-0.773-5.1-0.975-7.658c-1.035-5.3-0.656-10.749-0.469-16.232
		c0.171-5.485,1.348-11.047,2.345-16.097c1.313-5.208,2.74-9.728,3.98-13.247c1.276-3.498,2.264-5.812,2.264-5.812
		s2.446,0.539,5.783,2.199c3.468,1.605,7.974,4.443,12.262,8.337c4.485,3.865,8.364,9.122,11.67,15.189
		c3.347,6.037,5.103,13.339,6.466,20.53c0.103,3.788,0.258,7.614-0.088,11.339c-0.308,3.779-0.377,7.277-1.794,10.929
		c-1.166,3.59-2.617,6.932-4.136,9.983c-1.703,3.049-2.933,5.812-5.256,8.174c-4.539,4.675-8.916,7.806-12.225,9.619
		c-1.6,0.893-2.949,1.494-3.914,1.873c35.914-12.716,78.675-39.096,60.044-90.543C605.749,17.747,617.004,9.517,597.195,6.068z"/>
	<path fill="#000100" d="M341.206,108.85L341.206,108.85c-0.532-0.185-1.071-0.369-1.607-0.56
		C340.612,108.689,341.206,108.85,341.206,108.85z"/>
	<path fill="#F0EFED" d="M348.595,90.766c0.576-2.115,2.076-4.693,2.85-7.023c0.86-2.373,1.656-4.768,2.139-7.126
		c0.245-2.274,1.654-4.974,1.931-7.451c0.638-2.519,0.777-5.1,0.98-7.658c1.033-5.3,0.661-10.749,0.468-16.232
		c-0.191-5.485-1.344-11.047-2.348-16.097c-1.309-5.208-2.737-9.728-3.999-13.247c-1.257-3.498-2.244-5.812-2.244-5.812
		s-2.444,0.539-5.787,2.199c-3.465,1.605-7.962,4.443-12.256,8.337c-4.483,3.865-8.366,9.122-11.671,15.189
		c-3.34,6.037-5.104,13.339-6.467,20.53c-0.104,3.788-0.255,7.614,0.087,11.339c0.308,3.779,0.384,7.277,1.794,10.929
		c1.171,3.59,2.617,6.932,4.138,9.983c1.703,3.049,2.931,5.812,5.255,8.174c4.536,4.675,8.915,7.806,12.224,9.619
		c1.595,0.891,2.942,1.486,3.91,1.873c0.536,0.19,1.075,0.375,1.607,0.56c0,0,1.225-2.423,2.672-5.842
		C345.415,99.539,347.17,95.125,348.595,90.766z"/>
	<path fill="#000100" d="M544.101,108.85c0,0,0.592-0.16,1.604-0.56C545.167,108.482,544.632,108.665,544.101,108.85L544.101,108.85
		z"/>
	<path fill="#F0EFED" d="M561.844,96.798c2.323-2.362,3.553-5.125,5.256-8.174c1.519-3.051,2.97-6.393,4.136-9.983
		c1.417-3.652,1.486-7.149,1.794-10.929c0.346-3.725,0.19-7.551,0.088-11.339c-1.363-7.191-3.119-14.493-6.466-20.53
		c-3.306-6.067-7.185-11.324-11.67-15.189c-4.288-3.894-8.794-6.732-12.262-8.337c-3.337-1.66-5.783-2.199-5.783-2.199
		s-0.987,2.314-2.264,5.812c-1.24,3.519-2.667,8.038-3.98,13.247c-0.997,5.05-2.174,10.612-2.345,16.097
		c-0.188,5.484-0.566,10.933,0.469,16.232c0.201,2.558,0.337,5.139,0.975,7.658c0.278,2.478,1.694,5.177,1.938,7.451
		c0.474,2.358,1.272,4.753,2.136,7.126c0.772,2.33,2.277,4.909,2.827,7.023c1.448,4.36,3.202,8.773,4.741,12.242
		c1.447,3.425,2.667,5.842,2.667,5.842c0.531-0.185,1.066-0.367,1.604-0.56c0.965-0.379,2.314-0.98,3.914-1.873
		C552.928,104.604,557.305,101.474,561.844,96.798z"/>
</g>
</svg>
